<svg width="36" height="36" viewBox="0 0 36 36" fill="none" xmlns="http://www.w3.org/2000/svg">
<rect width="36" height="36" fill="#E5E5E5"/>
<rect width="414" height="896" transform="translate(-305 -585)" fill="white"/>
<g filter="url(#filter0_d_0_1)">
<rect x="-7" y="-237" width="50" height="280" rx="25" fill="url(#paint0_linear_0_1)"/>
<rect x="-8.5" y="-238.5" width="53" height="283" rx="26.5" stroke="#FFE9D5" stroke-width="3"/>
</g>
<circle cx="18" cy="18" r="18" fill="#FFF2EA"/>
<path d="M13.0909 22.0909V20.8636C12.4131 20.8636 11.8636 21.4131 11.8636 22.0909H13.0909ZM22.9091 22.0909H24.1364C24.1364 21.4131 23.5869 20.8636 22.9091 20.8636V22.0909ZM13.0909 23.3182H22.9091V20.8636H13.0909V23.3182ZM21.6818 22.0909V23.7273H24.1364V22.0909H21.6818ZM14.3182 23.7273V22.0909H11.8636V23.7273H14.3182ZM18 27.4091C15.9666 27.4091 14.3182 25.7607 14.3182 23.7273H11.8636C11.8636 27.1163 14.611 29.8636 18 29.8636V27.4091ZM21.6818 23.7273C21.6818 25.7607 20.0334 27.4091 18 27.4091V29.8636C21.389 29.8636 24.1364 27.1163 24.1364 23.7273H21.6818Z" fill="#FF823C"/>
<path d="M6.79113 15.2182C6.79113 13.3542 8.30217 11.8432 10.1661 11.8432C12.0301 11.8432 13.5411 13.3542 13.5411 15.2182" stroke="#FF823C" stroke-width="2.45455" stroke-linecap="round"/>
<path d="M27 11.4545L23.7273 13.9091L27 16.3636" stroke="#FF823C" stroke-width="2.45455" stroke-linecap="round" stroke-linejoin="round"/>
<defs>
<filter id="filter0_d_0_1" x="-20" y="-246" width="76" height="306" filterUnits="userSpaceOnUse" color-interpolation-filters="sRGB">
<feFlood flood-opacity="0" result="BackgroundImageFix"/>
<feColorMatrix in="SourceAlpha" type="matrix" values="0 0 0 0 0 0 0 0 0 0 0 0 0 0 0 0 0 0 127 0" result="hardAlpha"/>
<feOffset dy="4"/>
<feGaussianBlur stdDeviation="5"/>
<feColorMatrix type="matrix" values="0 0 0 0 0 0 0 0 0 0 0 0 0 0 0 0 0 0 0.2 0"/>
<feBlend mode="normal" in2="BackgroundImageFix" result="effect1_dropShadow_0_1"/>
<feBlend mode="normal" in="SourceGraphic" in2="effect1_dropShadow_0_1" result="shape"/>
</filter>
<linearGradient id="paint0_linear_0_1" x1="18" y1="-237" x2="18" y2="43" gradientUnits="userSpaceOnUse">
<stop offset="0.354167" stop-color="#FFA14A"/>
<stop offset="1" stop-color="#FFCC4A"/>
</linearGradient>
</defs>
</svg>
