<svg width="36" height="36" viewBox="0 0 36 36" fill="none" xmlns="http://www.w3.org/2000/svg">
<rect width="36" height="36" fill="#E5E5E5"/>
<g id="Index Chart">
<rect width="414" height="896" transform="translate(-131 -585)" fill="white"/>
<g id="bars">
<g id="bar 3">
<rect id="Rectangle 1075" x="-4" y="-47" width="44" height="87" rx="22" fill="#CFCFCF"/>
<g id="Group 1649">
<circle id="Ellipse 165" cx="18" cy="18" r="18" fill="#D4F3D3"/>
<g id="Group 1645">
<path id="Intersect" d="M23.7273 23.7273C23.1455 25.7104 20.8022 27.1935 18 27.1935C15.1978 27.1935 12.8545 25.7104 12.2727 23.7273" stroke="#52C873" stroke-width="2.45455" stroke-linecap="round" stroke-linejoin="round"/>
</g>
<rect id="Rectangle 1011" x="24.5454" y="12.2727" width="3.27273" height="6.54545" rx="1.63636" fill="#52C873"/>
<rect id="Rectangle 1012" x="8.18182" y="12.2727" width="3.27273" height="6.54545" rx="1.63636" fill="#52C873"/>
</g>
<g id="Group 1650">
<g id="Group 1698">
<circle id="Ellipse 165_2" cx="18" cy="18" r="18" fill="#F2F2F2"/>
<path id="?" d="M15.0781 22.5938C15.099 23.1146 15.2865 23.5156 15.6406 23.7969C16.0052 24.0781 16.4323 24.2188 16.9219 24.2188C17.4219 24.2188 17.8542 24.0729 18.2188 23.7812C18.5938 23.4896 18.776 23.0938 18.7656 22.5938L18.75 21.5781C18.7396 21.2135 18.8854 20.8438 19.1875 20.4688C19.4896 20.0833 19.8698 19.7344 20.3281 19.4219C20.7865 19.1094 21.2812 18.7396 21.8125 18.3125C22.3542 17.875 22.8542 17.4323 23.3125 16.9844C23.7708 16.526 24.151 15.9531 24.4531 15.2656C24.7656 14.5781 24.9219 13.8385 24.9219 13.0469C24.9219 12.0156 24.7344 11.1094 24.3594 10.3281C23.9948 9.53646 23.4844 8.90625 22.8281 8.4375C22.1823 7.96875 21.4479 7.61979 20.625 7.39062C19.8021 7.16146 18.901 7.04688 17.9219 7.04688C16.2656 7.04688 14.6823 7.26042 13.1719 7.6875C12.724 7.82292 12.3854 8.04167 12.1562 8.34375C11.9375 8.64583 11.8281 8.97396 11.8281 9.32812C11.8281 9.81771 11.9635 10.224 12.2344 10.5469C12.5156 10.8698 12.875 11.0312 13.3125 11.0312C13.5312 11.0312 14.0781 10.9688 14.9531 10.8438C15.8281 10.7083 16.4896 10.6406 16.9375 10.6406C17.9271 10.6406 18.7344 10.8542 19.3594 11.2812C19.9948 11.6979 20.3125 12.401 20.3125 13.3906C20.3125 13.8385 20.2135 14.276 20.0156 14.7031C19.8281 15.1198 19.5781 15.5 19.2656 15.8438C18.9531 16.1875 18.6042 16.5312 18.2188 16.875C17.8438 17.2083 17.4688 17.5417 17.0938 17.875C16.7292 18.2083 16.3906 18.5469 16.0781 18.8906C15.7656 19.2344 15.5156 19.6146 15.3281 20.0312C15.1406 20.4479 15.0521 20.8802 15.0625 21.3281L15.0781 22.5938ZM16.9531 30.6562C17.6094 30.6562 18.151 30.4375 18.5781 30C19.0052 29.5729 19.2188 29.0521 19.2188 28.4375C19.2188 27.8125 19 27.2917 18.5625 26.875C18.125 26.4583 17.5885 26.25 16.9531 26.25C16.2865 26.25 15.7448 26.4688 15.3281 26.9062C14.9115 27.3333 14.7031 27.8438 14.7031 28.4375C14.7031 29.0521 14.9115 29.5729 15.3281 30C15.7552 30.4375 16.2969 30.6562 16.9531 30.6562Z" fill="#929292"/>
</g>
</g>
</g>
</g>
</g>
</svg>
